<svg id="visual" viewBox="0 0 960 540" width="960" height="540" xmlns="http://www.w3.org/2000/svg" xmlns:xlink="http://www.w3.org/1999/xlink" version="1.1"><rect x="0" y="0" width="960" height="540" fill="#FFFFFF"></rect><defs><linearGradient id="grad1_0" x1="43.8%" y1="100%" x2="100%" y2="0%"><stop offset="14.444444444444446%" stop-color="#001122" stop-opacity="1"></stop><stop offset="85.55555555555554%" stop-color="#001122" stop-opacity="1"></stop></linearGradient></defs><defs><linearGradient id="grad1_1" x1="43.8%" y1="100%" x2="100%" y2="0%"><stop offset="14.444444444444446%" stop-color="#001122" stop-opacity="1"></stop><stop offset="85.55555555555554%" stop-color="#4e5664" stop-opacity="1"></stop></linearGradient></defs><defs><linearGradient id="grad1_2" x1="43.8%" y1="100%" x2="100%" y2="0%"><stop offset="14.444444444444446%" stop-color="#a2a7ae" stop-opacity="1"></stop><stop offset="85.55555555555554%" stop-color="#4e5664" stop-opacity="1"></stop></linearGradient></defs><defs><linearGradient id="grad1_3" x1="43.8%" y1="100%" x2="100%" y2="0%"><stop offset="14.444444444444446%" stop-color="#a2a7ae" stop-opacity="1"></stop><stop offset="85.55555555555554%" stop-color="#ffffff" stop-opacity="1"></stop></linearGradient></defs><defs><linearGradient id="grad2_0" x1="0%" y1="100%" x2="56.3%" y2="0%"><stop offset="14.444444444444446%" stop-color="#001122" stop-opacity="1"></stop><stop offset="85.55555555555554%" stop-color="#001122" stop-opacity="1"></stop></linearGradient></defs><defs><linearGradient id="grad2_1" x1="0%" y1="100%" x2="56.3%" y2="0%"><stop offset="14.444444444444446%" stop-color="#4e5664" stop-opacity="1"></stop><stop offset="85.55555555555554%" stop-color="#001122" stop-opacity="1"></stop></linearGradient></defs><defs><linearGradient id="grad2_2" x1="0%" y1="100%" x2="56.3%" y2="0%"><stop offset="14.444444444444446%" stop-color="#4e5664" stop-opacity="1"></stop><stop offset="85.55555555555554%" stop-color="#a2a7ae" stop-opacity="1"></stop></linearGradient></defs><defs><linearGradient id="grad2_3" x1="0%" y1="100%" x2="56.3%" y2="0%"><stop offset="14.444444444444446%" stop-color="#ffffff" stop-opacity="1"></stop><stop offset="85.55555555555554%" stop-color="#a2a7ae" stop-opacity="1"></stop></linearGradient></defs><g transform="translate(960, 540)"><path d="M-297 0C-278.7 -34.1 -260.4 -68.2 -245.8 -101.8C-231.1 -135.4 -220.1 -168.6 -199.4 -199.4C-178.8 -230.2 -148.5 -258.5 -113.7 -274.4C-78.8 -290.3 -39.4 -293.6 0 -297L0 0Z" fill="#d0d2d6"></path><path d="M-222.7 0C-209 -25.6 -195.3 -51.1 -184.3 -76.3C-173.3 -101.6 -165 -126.5 -149.6 -149.6C-134.1 -172.6 -111.4 -193.9 -85.2 -205.8C-59.1 -217.7 -29.6 -220.2 0 -222.7L0 0Z" fill="#777d88"></path><path d="M-148.5 0C-139.4 -17 -130.2 -34.1 -122.9 -50.9C-115.5 -67.7 -110 -84.3 -99.7 -99.7C-89.4 -115.1 -74.2 -129.3 -56.8 -137.2C-39.4 -145.1 -19.7 -146.8 0 -148.5L0 0Z" fill="#273242"></path><path d="M-74.2 0C-69.7 -8.5 -65.1 -17 -61.4 -25.4C-57.8 -33.9 -55 -42.2 -49.9 -49.9C-44.7 -57.5 -37.1 -64.6 -28.4 -68.6C-19.7 -72.6 -9.9 -73.4 0 -74.2L0 0Z" fill="#001122"></path></g><g transform="translate(0, 0)"><path d="M297 0C292.6 38.2 288.2 76.5 274.4 113.7C260.6 150.8 237.3 187 205.8 205.8C174.2 224.6 134.4 226 98.7 238.4C63.1 250.7 31.5 273.8 0 297L0 0Z" fill="#d0d2d6"></path><path d="M222.8 0C219.5 28.7 216.2 57.4 205.8 85.2C195.4 113.1 178 140.2 154.3 154.3C130.7 168.4 100.8 169.5 74 178.8C47.3 188 23.6 205.4 0 222.8L0 0Z" fill="#777d88"></path><path d="M148.5 0C146.3 19.1 144.1 38.2 137.2 56.8C130.3 75.4 118.7 93.5 102.9 102.9C87.1 112.3 67.2 113 49.4 119.2C31.5 125.3 15.8 136.9 0 148.5L0 0Z" fill="#273242"></path><path d="M74.3 0C73.2 9.6 72.1 19.1 68.6 28.4C65.1 37.7 59.3 46.7 51.4 51.4C43.6 56.1 33.6 56.5 24.7 59.6C15.8 62.7 7.9 68.5 0 74.3L0 0Z" fill="#001122"></path></g></svg>