<?xml version="1.0" standalone="no"?>
<svg viewBox="0 0 200 200" xmlns="http://www.w3.org/2000/svg">
  <path fill="#0F62FE" d="M41,-69.4C55.1,-62.9,69.8,-55.9,76.8,-44.2C83.8,-32.5,83,-16.3,80.6,-1.4C78.2,13.5,74.2,27,68.6,41C63,55,55.8,69.6,44.1,78.7C32.4,87.9,16.2,91.8,0.1,91.6C-16,91.5,-32.1,87.4,-43.2,77.9C-54.2,68.3,-60.4,53.4,-67.5,39.5C-74.7,25.6,-82.9,12.8,-83.5,-0.4C-84.1,-13.5,-77.2,-27,-70.3,-41.4C-63.4,-55.8,-56.6,-71.1,-44.9,-78.9C-33.2,-86.8,-16.6,-87.2,-1.6,-84.5C13.5,-81.7,26.9,-75.9,41,-69.4Z" transform="translate(100 100)" />
</svg>
